PathFileType	4	(X/Y/Z)	D:\MotionData\Pi-Spi Study\20230118_AMCsubject1\Trimmed_right_abd_001_rotated.trc
DataRate	CameraRate	NumFrames	NumMarkers	Units	OrigDataRate	OrigDataStartFrame	OrigNumFrames
200.00	200.00	       11	35	mm	200.00	170	       271
Frame#	Time	C7			Sternum			r_AMC1			r_AMC2			r_AMC3			l_AMC1			l_AMC2			l_AMC3			PX			T8			r_humerous			r_elbow_medial			r_elbow_lateral			r_forearm			r_wrist_radius			r_wrist_ulna			r_MCP_1			r_MCP_3			l_humerous			l_elbow_medial			l_elbow_lateral			l_forearm			l_wrist_radius			l_wrist_ulna			l_MCP_1			l_MCP_3			r_ASIS			r_PSIS			l_ASIS			l_PSIS			r_IC			l_IC			TS			AI			AA			
		X1	Y1	Z1	X2	Y2	Z2	X3	Y3	Z3	X4	Y4	Z4	X5	Y5	Z5	X6	Y6	Z6	X7	Y7	Z7	X8	Y8	Z8	X9	Y9	Z9	X10	Y10	Z10	X11	Y11	Z11	X12	Y12	Z12	X13	Y13	Z13	X14	Y14	Z14	X15	Y15	Z15	X16	Y16	Z16	X17	Y17	Z17	X18	Y18	Z18	X19	Y19	Z19	X20	Y20	Z20	X21	Y21	Z21	X22	Y22	Z22	X23	Y23	Z23	X24	Y24	Z24	X25	Y25	Z25	X26	Y26	Z26	X27	Y27	Z27	X28	Y28	Z28	X29	Y29	Z29	X30	Y30	Z30	X31	Y31	Z31	X32	Y32	Z32	X33	Y33	Z33	X34	Y34	Z34	X35	Y35	Z35	

170	0.845	203.456	1376.9169	-208.0541	329.7096	1301.5607	-197.2486	201.8255	1322.1907	-41.3928	238.6521	1317.9287	-8.1679	262.2193	1350.3325	-28.8178	229.8892	1327.3915	-373.0782	270.9362	1318.225	-403.1782	294.7259	1351.4116	-370.0026	382.3884	1112.1222	-191.6017	150.3118	1193.498	-219.8161	297.3219	1125.176	-5.6022	211.9667	992.0124	-24.2779	239.0996	998.0524	35.2145	285.3784	839.3762	43.5331	329.4158	777.046	19.5623	281.8142	770.3489	38.5002	341.3189	677.2757	32.5171	299.8685	690.1018	44.2835	323.7684	1116.2214	-387.8858	223.6775	999.7957	-405.5926	262.6178	993.7305	-445.4781	312.3917	841.5854	-439.1913	341.5723	770.6987	-406.1437	305.4463	766.6228	-433.8672	356.2092	693.6747	-415.6614	312.902	691.6124	-439.5118	364.8815	907.2552	-65.4241	177.3459	922.7138	-157.2744	374.7291	895.0228	-327.9033	181.9785	917.0904	-260.9744	277.5486	967.1335	-40.3568	285.4651	940.8641	-366.8708	113.3796	1305.0064	-94.3201	104.4119	1204.4205	-87.3238	189.534	1300.512	29.7868
171	0.85	203.4525	1376.9436	-208.0449	329.6921	1301.52	-197.2261	201.8307	1322.2048	-41.3892	238.6797	1317.8823	-8.1651	262.2446	1350.374	-28.8351	229.8755	1327.3887	-373.0637	270.9901	1318.2045	-403.1695	294.6082	1351.5226	-369.9481	382.3638	1112.104	-191.5707	150.3282	1193.4974	-219.8166	297.3071	1125.1586	-5.5885	211.9549	992.0074	-24.2931	239.095	998.0303	35.208	285.3511	839.4236	43.5367	329.3552	777.103	19.5771	281.8283	770.345	38.4954	341.2983	677.2685	32.5297	299.8673	690.0468	44.2595	323.7349	1116.2809	-387.8997	223.6679	999.8086	-405.6	262.6321	993.7338	-445.464	312.4373	841.535	-439.1445	341.6127	770.6575	-406.1277	305.4309	766.6282	-433.8564	356.2151	693.7018	-415.6673	312.938	691.5972	-439.5485	364.8936	907.2748	-65.4335	177.3382	922.7175	-157.2762	374.7314	895.0509	-327.9014	182.0197	917.1017	-260.9908	277.4747	967.1901	-40.3428	285.4816	940.9058	-366.9479	113.3884	1304.9814	-94.3261	104.447	1204.4565	-87.3455	189.512	1300.5057	29.8039
172	0.855	203.4534	1376.9128	-208.0298	329.7272	1301.5518	-197.2155	201.8234	1322.1951	-41.3891	238.6788	1317.9237	-8.1604	262.2715	1350.3298	-28.8458	229.8858	1327.3983	-373.0655	271.0033	1318.2024	-403.2153	294.7231	1351.4374	-370.0081	382.3554	1112.09	-191.5471	150.3195	1193.5032	-219.7959	297.3139	1125.18	-5.5609	211.9582	992.0263	-24.3075	239.0989	998.0457	35.2328	285.3383	839.4085	43.5378	329.3506	777.0446	19.6294	281.8019	770.3267	38.4816	341.296	677.2828	32.5386	299.7129	690.1343	44.2765	323.7349	1116.2996	-387.8648	223.6809	999.811	-405.5977	262.635	993.7368	-445.4569	312.3485	841.633	-439.1867	341.6352	770.6845	-406.181	305.4614	766.6064	-433.8333	356.2356	693.683	-415.6892	312.9687	691.5821	-439.497	364.8732	907.2685	-65.423	177.3501	922.7001	-157.2603	374.7404	895.0159	-327.8957	182.0036	917.1102	-260.978	277.4858	967.1412	-40.3338	285.4475	940.9014	-366.9121	113.3846	1304.9821	-94.3516	104.4143	1204.4469	-87.3586	189.4497	1300.4828	29.8133
173	0.86	203.4812	1376.9414	-208.0209	329.713	1301.5429	-197.2154	201.8307	1322.1988	-41.3934	238.7437	1317.8825	-8.1913	262.2789	1350.2795	-28.815	229.8924	1327.3984	-373.0499	270.9737	1318.192	-403.1469	294.7157	1351.4264	-369.9413	382.2927	1112.0797	-191.546	150.3483	1193.4988	-219.8229	297.3451	1125.1105	-5.5824	211.9411	992.028	-24.2964	238.3045	998.1785	35.6778	285.352	839.3759	43.552	329.3191	776.9991	19.6598	281.8141	770.3188	38.5123	341.2755	677.2688	32.5742	299.7597	690.122	44.3114	323.7349	1116.2918	-387.9001	223.6909	999.8076	-405.5706	262.6419	993.739	-445.4566	312.3481	841.6145	-439.1522	341.7817	770.4957	-406.1092	305.4372	766.6321	-433.855	356.2552	693.7052	-415.6842	312.971	691.602	-439.5038	364.889	907.2673	-65.4474	177.3509	922.7156	-157.2695	374.7123	895.0176	-327.878	182.014	917.0862	-260.9665	277.5124	967.1112	-40.3621	285.3854	940.9529	-366.9104	113.386	1305.0101	-94.3364	104.4188	1204.4585	-87.3774	189.4492	1300.5095	29.7915
174	0.865	203.4732	1376.9386	-208.0338	329.682	1301.5205	-197.2194	201.8384	1322.208	-41.3847	238.6835	1317.9802	-8.1663	262.2672	1350.3054	-28.8289	229.9117	1327.4152	-373.0564	271.0063	1318.1875	-403.1699	294.7727	1351.4121	-370.0197	382.3163	1112.0815	-191.5398	150.3431	1193.5068	-219.8016	297.3204	1125.0939	-5.559	211.9573	992.0581	-24.3161	238.3113	998.1871	35.7094	285.313	839.4081	43.5764	329.3269	777.0352	19.6323	281.7722	770.3237	38.5249	341.2783	677.2686	32.5535	299.7547	690.1856	44.3266	323.7734	1116.2316	-387.893	223.6523	999.6753	-405.5794	262.7413	993.852	-445.4516	312.3535	841.6016	-439.1587	341.6572	770.6551	-406.1638	305.4302	766.6746	-433.8636	356.2353	693.7361	-415.6636	313.0165	691.5276	-439.5395	364.8836	907.269	-65.418	177.3586	922.7084	-157.2634	374.6818	895.0177	-327.8901	181.9994	917.087	-260.9717	277.5303	967.0559	-40.3556	285.4599	941.0288	-366.8787	113.3527	1305.0096	-94.3481	104.4072	1204.4543	-87.4032	189.397	1300.5212	29.8411
175	0.87	203.4827	1376.9492	-208.0263	329.7351	1301.5465	-197.1934	201.8326	1322.1897	-41.3791	238.6949	1317.9381	-8.1615	262.267	1350.2913	-28.8189	229.9211	1327.4188	-373.0519	271.0203	1318.2042	-403.152	294.6581	1351.5225	-369.9359	382.3151	1112.0767	-191.5498	150.325	1193.5094	-219.8011	297.3425	1125.1083	-5.5826	211.9557	992.0405	-24.2985	239.0834	998.0677	35.237	285.2927	839.4266	43.5719	329.336	776.9846	19.6487	281.8014	770.2982	38.4971	341.2506	677.2742	32.57	299.7551	690.106	44.3272	323.7589	1116.2947	-387.8772	223.6882	999.8242	-405.5909	262.6556	993.7525	-445.4495	312.3791	841.6073	-439.1528	341.6347	770.7138	-406.1468	305.4531	766.6279	-433.8248	356.2732	693.6819	-415.7149	312.9962	691.6761	-439.5484	364.8629	907.2498	-65.3896	177.3504	922.728	-157.25	374.7395	895.0326	-327.8721	181.9927	917.0803	-260.9726	277.5187	967.1475	-40.3073	285.4778	940.8992	-366.8707	113.3529	1305.0292	-94.3607	104.3909	1204.4628	-87.433	189.3896	1300.5349	29.8224
176	0.875	203.4863	1376.9413	-208.0174	329.7114	1301.5175	-197.2123	201.8365	1322.2054	-41.3794	238.6929	1317.9814	-8.1313	262.3041	1350.2975	-28.8292	229.9359	1327.4149	-373.0266	271.0774	1318.161	-403.1685	294.6862	1351.5226	-369.9486	382.3239	1112.0653	-191.5579	150.3654	1193.5205	-219.8195	297.3382	1125.0781	-5.543	211.9457	992.047	-24.3027	238.2998	998.2024	35.7098	285.3036	839.4037	43.5262	329.3279	776.988	19.63	281.7393	770.3817	38.5343	341.2243	677.2532	32.5612	299.821	690.0539	44.2995	323.7709	1116.2693	-387.855	223.6536	999.6888	-405.5679	262.7542	993.8613	-445.4568	312.4092	841.5378	-439.1394	341.6565	770.6798	-406.1484	305.4608	766.606	-433.7942	356.2726	693.7232	-415.6814	312.9977	691.5961	-439.4684	364.8471	907.2267	-65.4024	177.3515	922.7292	-157.2587	374.7293	895.0303	-327.8685	181.9938	917.1286	-260.9638	277.5115	967.0814	-40.3187	285.3798	940.8982	-366.8283	113.3505	1305.0363	-94.3747	104.3763	1204.4496	-87.4223	189.3665	1300.5654	29.809
177	0.88	203.4948	1376.9611	-208.0186	329.6748	1301.4946	-197.1957	201.8441	1322.1996	-41.3777	238.6772	1317.9814	-8.1512	262.2399	1350.3512	-28.7905	229.9617	1327.4185	-373.0593	270.999	1318.2422	-403.1533	294.6802	1351.5265	-369.9316	382.3565	1112.1025	-191.5027	150.3462	1193.5093	-219.7908	297.2851	1125.1719	-5.5223	211.9278	992.0471	-24.3115	239.0575	998.0698	35.219	285.2839	839.4059	43.5477	329.3003	777.0275	19.6191	281.7571	770.3219	38.5302	341.2193	677.2471	32.5772	299.7097	690.0936	44.3018	323.7671	1116.261	-387.8753	223.716	999.8331	-405.5409	262.6611	993.7579	-445.4482	312.4164	841.5375	-439.1245	341.6627	770.6241	-406.1071	305.4887	766.5795	-433.8102	356.249	693.6934	-415.6529	312.961	691.618	-439.4758	364.8589	907.2382	-65.3954	177.3373	922.7495	-157.2607	374.6976	895.0034	-327.8836	182.0155	917.0931	-260.9535	277.5091	967.0737	-40.3297	285.4469	940.8424	-366.8453	113.3425	1305.0298	-94.405	104.4095	1204.4741	-87.4449	189.301	1300.5219	29.8097
178	0.885	203.5156	1376.9719	-208.0044	329.6884	1301.5021	-197.1643	201.8405	1322.2086	-41.3669	238.677	1317.9985	-8.1284	262.2877	1350.2943	-28.8251	229.9697	1327.4283	-373.0423	271.0568	1318.1746	-403.1245	294.4795	1351.5682	-369.4619	382.3355	1112.0878	-191.4873	150.3383	1193.5164	-219.79	297.2915	1125.094	-5.5223	211.9307	992.0569	-24.3285	239.0432	998.0796	35.2409	285.2635	839.4046	43.5746	329.3263	776.9854	19.6225	281.805	770.2862	38.535	341.2193	677.2418	32.5832	299.7286	690.1317	44.359	323.7736	1116.2427	-387.85	223.707	999.8289	-405.5595	262.68	993.7534	-445.4528	312.3802	841.5975	-439.13	340.8582	770.5826	-405.7012	305.4566	766.6223	-433.8276	356.2282	693.679	-415.6313	313.0001	691.6094	-439.4865	364.8873	907.1965	-65.3862	177.3393	922.7333	-157.2511	374.7248	895.0004	-327.8872	181.9957	917.098	-260.9611	277.5565	967.0031	-40.3281	285.3765	940.9218	-366.861	113.3393	1305.0319	-94.3903	104.4066	1204.4774	-87.4985	189.2834	1300.5225	29.7968
179	0.89	203.5074	1376.9613	-208.0196	329.6843	1301.5103	-197.1424	201.831	1322.203	-41.3664	238.6404	1318.0289	-8.1073	262.2608	1350.3247	-28.8134	229.9721	1327.4302	-373.0422	271.0721	1318.1322	-403.0924	294.5139	1351.1939	-370.9163	382.3475	1112.0892	-191.4821	150.3459	1193.5216	-219.7882	297.2681	1125.1222	-5.4862	211.9225	992.061	-24.3267	239.0445	998.072	35.2144	285.2758	839.3545	43.5773	329.2887	776.9972	19.666	281.7438	770.3187	38.5127	341.2034	677.252	32.5999	299.7415	690.116	44.3468	323.8577	1116.1693	-387.8793	223.7173	999.8514	-405.5807	262.6741	993.7567	-445.4506	312.4368	841.5175	-439.1287	341.6757	770.6603	-406.1552	305.4493	766.6189	-433.8096	356.2319	693.6089	-415.6389	313.0745	691.5068	-439.4984	364.876	907.2043	-65.4009	177.3465	922.7459	-157.2325	374.7211	894.9931	-327.8764	182.0155	917.1311	-260.9454	277.5118	967.1351	-40.3013	285.478	940.8665	-366.9311	113.3161	1305.0459	-94.3921	104.3631	1204.4582	-87.4991	189.2775	1300.5471	29.7938
180	0.895	203.5142	1376.9662	-208.014	329.6959	1301.4917	-197.1577	201.831	1322.1986	-41.3745	238.6817	1317.9741	-8.1068	262.2763	1350.3003	-28.8153	229.974	1327.4302	-373.0293	271.1146	1318.1096	-403.1395	294.7129	1351.5088	-369.8949	382.3116	1112.0706	-191.4703	150.3466	1193.5234	-219.7968	297.2915	1125.0881	-5.5284	211.9268	992.0591	-24.3396	238.2292	998.2057	35.703	285.2115	839.4509	43.5527	329.3069	776.9805	19.6297	281.6824	770.3448	38.5072	341.2112	677.2659	32.5913	299.7118	690.0893	44.3121	323.7758	1116.2914	-387.8579	223.6626	999.6691	-405.596	262.7596	993.8451	-445.4455	312.336	841.5477	-439.0833	341.5763	770.6815	-406.1104	305.4217	766.6063	-433.8029	356.2509	693.5906	-415.5785	312.948	691.6006	-439.4422	364.8935	907.2261	-65.4027	177.3177	922.7432	-157.249	374.7509	894.9985	-327.8886	181.9884	917.1003	-260.9359	277.5229	967.053	-40.3064	285.4853	940.8699	-366.8354	113.3243	1305.0397	-94.4353	104.3944	1204.4982	-87.5381	189.2421	1300.5452	29.8118
